{"title":"The.Making.Of.The.Mob.New.York.Part.6.HDTV.XViD-Sorrow","uid":12146016,"size":395136301,"categoryP":"video","categoryS":"hd___tv_shows","magnet":"?xt=urn:btih:a6a02b8fccf54a223746e058eada3852e9cfddfd&amp;dn=The.Making.Of.The.Mob.New.York.Part.6.HDTV.XViD-Sorrow&amp;tr=udp%3A%2F%2Ftracker.openbittorrent.com%3A80&amp;tr=udp%3A%2F%2Fopen.demonii.com%3A1337&amp;tr=udp%3A%2F%2Ftracker.coppersurfer.tk%3A6969&amp;tr=udp%3A%2F%2Fexodus.desync.com%3A6969","seeders":0,"leechers":0,"uploader":"skyhawkskyhawk","files":2,"time":1437472460,"description":"The Making Of The Mob New York Part 6 HDTV XViD-Sorrow\n\nGeneral\nComplete name                            : The.Making.Of.The.Mob.New.York.Part.6.HDTV.XViD-Sorrow.avi\nFormat                                   : AVI\nFormat/Info                              : Audio Video Interleave\nFile size                                : 377 MiB\nDuration                                 : 42mn 17s\nOverall bit rate                         : 1 246 Kbps\nWriting application                      : Lavf55.19.104\n\nVideo\nID                                       : 0\nFormat                                   : MPEG-4 Visual\nFormat profile                           : Simple@L3\nFormat settings, BVOP                    : No\nFormat settings, QPel                    : No\nFormat settings, GMC                     : No warppoints\nFormat settings, Matrix                  : Default (H.263)\nCodec ID                                 : XVID\nCodec ID/Hint                            : XviD\nDuration                                 : 42mn 17s\nBit rate                                 : 1 105 Kbps\nWidth                                    : 640 pixels\nHeight                                   : 360 pixels\nDisplay aspect ratio                     : 16:9\nFrame rate                               : 23.976 fps\nColor space                              : YUV\nChroma subsampling                       : 4:2:0\nBit depth                                : 8 bits\nScan type                                : Progressive\nCompression mode                         : Lossy\nBits/(Pixel*Frame)                       : 0.200\nStream size                              : 334 MiB (89%)\nWriting library                          : XviD 64\n\nAudio\nID                                       : 1\nFormat                                   : MPEG Audio\nFormat version                           : Version 1\nFormat profile                           : Layer 3\nMode                                     : Joint stereo\nMode extension                           : MS Stereo\nCodec ID                                 : 55\nCodec ID/Hint                            : MP3\nDuration                                 : 42mn 17s\nBit rate mode                            : Constant\nBit rate                                 : 128 Kbps\nChannel count                            : 2 channels\nSampling rate                            : 48.0 KHz\nCompression mode                         : Lossy\nStream size                              : 38.7 MiB (10%)\nAlignment                                : Aligned on interleaves\nInterleave, duration                     : 24 ms (0.58 video frame)\n\n\nSource:The.Making.Of.The.Mob.New.York.Part.6.720p.HDTV.x264-BATV","torrent":{"xt":"urn:btih:a6a02b8fccf54a223746e058eada3852e9cfddfd","amp;dn":"The.Making.Of.The.Mob.New.York.Part.6.HDTV.XViD-Sorrow","amp;tr":["udp%3A%2F%2Ftracker.openbittorrent.com%3A80","udp%3A%2F%2Fopen.demonii.com%3A1337","udp%3A%2F%2Ftracker.coppersurfer.tk%3A6969","udp%3A%2F%2Fexodus.desync.com%3A6969"],"infoHash":"a6a02b8fccf54a223746e058eada3852e9cfddfd","infoHashBuffer":{"type":"Buffer","data":[166,160,43,143,204,245,74,34,55,70,224,88,234,218,56,82,233,207,221,253]},"announce":[],"urlList":[]}}